<?xml version="1.0" encoding="UTF-8" standalone="no"?>
<svg
   xmlns:dc="http://purl.org/dc/elements/1.1/"
   xmlns:cc="http://creativecommons.org/ns#"
   xmlns:rdf="http://www.w3.org/1999/02/22-rdf-syntax-ns#"
   xmlns:svg="http://www.w3.org/2000/svg"
   xmlns="http://www.w3.org/2000/svg"
   xmlns:sodipodi="http://sodipodi.sourceforge.net/DTD/sodipodi-0.dtd"
   xmlns:inkscape="http://www.inkscape.org/namespaces/inkscape"
   sodipodi:docname="sport_car_rim.svg"
   inkscape:version="0.48.2 r9819"
   version="1.1"
   id="svg2"
   height="598.50909"
   width="598.50909">
  <sodipodi:namedview
     pagecolor="#ffffff"
     bordercolor="#666666"
     borderopacity="1"
     objecttolerance="10"
     gridtolerance="10"
     guidetolerance="10"
     inkscape:pageopacity="0"
     inkscape:pageshadow="2"
     inkscape:window-width="1024"
     inkscape:window-height="708"
     id="namedview10"
     showgrid="false"
     inkscape:zoom="0.34711433"
     inkscape:cx="605.90521"
     inkscape:cy="105.50741"
     inkscape:window-x="-4"
     inkscape:window-y="-4"
     inkscape:window-maximized="1"
     inkscape:current-layer="svg2"
     fit-margin-top="0"
     fit-margin-left="0"
     fit-margin-right="0"
     fit-margin-bottom="0" />
  <metadata
     id="metadata14">
    <rdf:RDF>
      <cc:Work
         rdf:about="">
        <dc:format>image/svg+xml</dc:format>
        <dc:type
           rdf:resource="http://purl.org/dc/dcmitype/StillImage" />
        <dc:title />
      </cc:Work>
    </rdf:RDF>
  </metadata>
  <defs
     id="defs12" />
  <circle
     style="fill:#000000;stroke:#0000ff;stroke-width:0;stroke-miterlimit:4;stroke-dasharray:none"
     transform="matrix(0.99751516,0,0,0.99751516,299.25455,299.25455)"
     sodipodi:ry="300"
     sodipodi:rx="300"
     sodipodi:cy="0"
     sodipodi:cx="0"
     id="circle4349"
     r="300"
     cy="0"
     cx="0" />
  <circle
     cx="0"
     cy="0"
     r="300"
     id="circle4"
     sodipodi:cx="0"
     sodipodi:cy="0"
     sodipodi:rx="300"
     sodipodi:ry="300"
     transform="matrix(0.8194093,0,0,0.8194093,299.25455,299.25455)"
     style="fill:#e6e6e6;stroke:#0000ff;stroke-width:0;stroke-miterlimit:4;stroke-dasharray:none" />
  <circle
     style="fill:#808080;stroke:#0000ff;stroke-width:0;stroke-miterlimit:4;stroke-dasharray:none"
     transform="matrix(0.7529873,0,0,0.7529873,299.25455,299.25455)"
     sodipodi:ry="300"
     sodipodi:rx="300"
     sodipodi:cy="0"
     sodipodi:cx="0"
     id="circle3832"
     r="300"
     cy="0"
     cx="0" />
  <circle
     cx="0"
     cy="0"
     r="300"
     id="circle4098"
     sodipodi:cx="0"
     sodipodi:cy="0"
     sodipodi:rx="300"
     sodipodi:ry="300"
     transform="matrix(0.59478117,0,0,0.59478117,299.25455,299.25455)"
     style="fill:#1a1a1a;stroke:#0000ff;stroke-width:0;stroke-miterlimit:4;stroke-dasharray:none" />
  <circle
     cx="0"
     cy="0"
     r="200"
     id="circle6"
     sodipodi:cx="0"
     sodipodi:cy="0"
     sodipodi:rx="200"
     sodipodi:ry="200"
     transform="matrix(0.38444504,0,0,0.38444504,299.25455,299.25455)"
     style="fill:#666666;stroke:#ff0000;stroke-width:0;stroke-miterlimit:4;stroke-dasharray:none" />
  <path
     style="opacity:0.38565022;fill:#1adc1a;fill-opacity:0.98930485;fill-rule:evenodd;stroke:#00000e;stroke-width:0;stroke-miterlimit:4;stroke-opacity:1;stroke-dasharray:none;stroke-dashoffset:2"
     d="m 296.28628,366.81817 c -11.73077,7.49904 -39.41859,90.22413 -61.14624,144.85131 l -21.96516,-8.31115 c 27.08423,-55.01289 43.40119,-119.59667 81.9241,-164.44184 l 10.50309,0 c 39.6048,51.47455 54.88683,109.69838 81.92409,164.44184 l -21.96515,8.31115 C 343.83336,457.0423 316.14554,374.31721 304.41476,366.81817 z"
     id="path3774"
     inkscape:connector-curvature="0"
     sodipodi:nodetypes="ccccccccc" />
  <path
     inkscape:connector-curvature="0"
     style="fill:#808080;fill-opacity:0.98930485;fill-rule:evenodd;stroke:#00000e;stroke-width:0;stroke-miterlimit:4;stroke-opacity:1;stroke-dasharray:none;stroke-dashoffset:2"
     d="m 362.59413,322.95584 c 3.507,13.47397 73.62724,65.3701 118.86655,102.91505 l -14.69197,18.32182 C 422.81782,401.43417 366.43721,365.95832 335.69115,315.46295 l 3.24564,-9.98904 c 61.19376,-21.75989 121.29032,-18.30182 181.70942,-27.09912 l 1.11676,23.45839 c -58.66774,3.7835 -145.89998,4.55272 -156.657,13.39202 z"
     id="path4054" />
  <path
     style="fill:#cccccc;fill-opacity:1;fill-rule:evenodd;stroke:#00000e;stroke-width:0;stroke-miterlimit:4;stroke-opacity:1;stroke-dasharray:none;stroke-dashoffset:2"
     d="M 301.62916,331.79266 C 246.10399,398.65949 260.88829,467.6162 247.60675,527.6981 l -45.71128,-25.52708 c 25.15794,-50.57562 55.27577,-123.89194 86.07968,-167.4101 z"
     id="path3776"
     inkscape:connector-curvature="0"
     sodipodi:nodetypes="ccccc" />
  <path
     sodipodi:nodetypes="ccccc"
     inkscape:connector-curvature="0"
     id="path3791"
     d="m 299.07189,331.79266 c 55.52517,66.86683 40.74086,135.82354 54.02241,195.90544 l 45.71127,-25.52708 C 373.64764,451.5954 343.52981,378.27908 312.7259,334.76092 z"
     style="fill:#cccccc;stroke:#00000e;stroke-width:0;stroke-miterlimit:4;stroke-opacity:1;stroke-dasharray:none;stroke-dashoffset:2" />
  <g
     id="g3922"
     transform="translate(418.8117,418.8117)" />
  <path
     inkscape:connector-curvature="0"
     style="fill:#666666;fill-opacity:0.98930485;fill-rule:evenodd;stroke:#00000e;stroke-width:0;stroke-miterlimit:4;stroke-opacity:1;stroke-dasharray:none;stroke-dashoffset:2"
     d="m 234.08048,317.30987 c -10.75702,-8.8393 -97.98927,-9.60852 -156.657004,-13.39203 l 1.116757,-23.45838 c 60.689847,8.75871 127.154897,4.31958 181.709427,27.09912 l 3.24563,9.98903 c -36.71665,53.57292 -87.36839,86.09914 -131.07755,128.72977 l -14.69197,-18.32182 c 45.23931,-37.54495 115.35954,-89.44109 118.86655,-102.91505 z"
     id="path4048" />
  <path
     inkscape:connector-curvature="0"
     style="fill:#cccccc;stroke:#00000e;stroke-width:0;stroke-miterlimit:4;stroke-opacity:1;stroke-dasharray:none;stroke-dashoffset:2"
     d="M 268.25253,309.13565 C 221.81661,382.60622 151.66628,389.8543 98.629212,421.05213 l 38.403258,35.58571 c 40.32604,-39.55535 100.74709,-90.8551 132.61639,-133.5992 z"
     id="path4028" />
  <path
     inkscape:connector-curvature="0"
     style="fill:#808080;fill-opacity:0.98930485;fill-rule:evenodd;stroke:#00000e;stroke-width:0;stroke-miterlimit:4;stroke-opacity:1;stroke-dasharray:none;stroke-dashoffset:2"
     d="M 261.94302,242.84973 C 267.0256,229.8877 240.80092,146.6872 226.26992,89.721701 l 22.65535,-6.186944 c 10.42416,60.426073 35.18486,122.266323 30.3785,181.190023 l -8.49717,6.17356 C 208.50966,252.53367 161.92313,214.41217 107.87211,186.01588 l 12.88502,-19.63466 c 49.68709,31.42312 120.71159,82.07464 134.60981,81.24631 z"
     id="path4050" />
  <path
     inkscape:connector-curvature="0"
     style="fill:#cccccc;stroke:#00000e;stroke-width:0;stroke-miterlimit:4;stroke-opacity:1;stroke-dasharray:none;stroke-dashoffset:2"
     d="M 280.27691,272.8233 C 196.05276,251.36378 167.48178,186.88663 121.42153,146.08604 L 99.444765,193.6063 c 50.080805,26.12907 117.540895,67.7404 168.041105,84.84126 z"
     id="path4030" />
  <path
     inkscape:connector-curvature="0"
     style="fill:#808080;fill-opacity:0.98930485;fill-rule:evenodd;stroke:#00000e;stroke-width:0;stroke-miterlimit:4;stroke-opacity:1;stroke-dasharray:none;stroke-dashoffset:2"
     d="m 341.36883,246.33913 c 13.89822,0.82833 84.92272,-49.82319 134.60981,-81.2463 l 12.88502,19.63465 c -54.24736,28.58665 -105.40947,71.24517 -162.93448,84.88247 l -8.49718,-6.17356 c -1.78498,-64.92291 20.07471,-121.00952 30.37851,-181.190028 l 22.65535,6.186944 C 355.93485,145.39881 329.71018,228.5993 334.79275,241.56133 z"
     id="path4052" />
  <path
     inkscape:connector-curvature="0"
     style="fill:#cccccc;stroke:#00000e;stroke-width:0;stroke-miterlimit:4;stroke-opacity:1;stroke-dasharray:none;stroke-dashoffset:2"
     d="M 318.52774,273.03803 C 312.91027,186.30475 365.40276,139.2076 389.97303,82.793623 l -51.98564,-6.216575 c -9.3744,55.704002 -28.10282,132.720962 -28.76128,186.033982 z"
     id="path4032" />
  <path
     inkscape:connector-curvature="0"
     style="fill:#cccccc;stroke:#00000e;stroke-width:0;stroke-miterlimit:4;stroke-opacity:1;stroke-dasharray:none;stroke-dashoffset:2"
     d="m 330.14368,309.48309 c 80.75236,-32.14458 141.76549,3.22492 203.011,9.15975 l -10.15213,-51.3623 c -55.87451,8.29789 -134.9094,14.28566 -185.81656,30.13406 z"
     id="path4034" />
  <path
     inkscape:connector-curvature="0"
     style="fill:#cccccc;fill-opacity:1;fill-rule:evenodd;stroke:#00000e;stroke-width:0;stroke-miterlimit:4;stroke-opacity:1;stroke-dasharray:none;stroke-dashoffset:2"
     d="M 278.20803,274.32643 C 283.8255,187.59315 231.33301,140.49599 206.76274,84.082018 l 51.98564,-6.216575 c 9.37441,55.703997 28.10283,132.720977 28.76128,186.033987 z"
     id="path4040" />
  <path
     inkscape:connector-curvature="0"
     style="fill:#cccccc;fill-opacity:1;fill-rule:evenodd;stroke:#00000e;stroke-width:0;stroke-miterlimit:4;stroke-opacity:1;stroke-dasharray:none;stroke-dashoffset:2"
     d="M 316.45887,271.53491 C 400.68302,250.07538 429.254,185.59823 475.31424,144.79764 L 497.291,192.3179 c -50.0808,26.12907 -117.54088,67.74041 -168.0411,84.84126 z"
     id="path4042" />
  <path
     inkscape:connector-curvature="0"
     style="fill:#cccccc;fill-opacity:1;fill-rule:evenodd;stroke:#00000e;stroke-width:0;stroke-miterlimit:4;stroke-opacity:1;stroke-dasharray:none;stroke-dashoffset:2"
     d="m 330.93392,307.05098 c 46.43592,73.47057 116.58625,80.71866 169.62331,111.91648 l -38.40325,35.58571 c -40.32605,-39.55535 -100.74709,-90.8551 -132.6164,-133.5992 z"
     id="path4044" />
  <path
     inkscape:connector-curvature="0"
     style="opacity:0.99551571;fill:#666666;fill-opacity:0.98930485;fill-rule:evenodd;stroke:#00000e;stroke-width:0;stroke-miterlimit:4;stroke-opacity:1;stroke-dasharray:none;stroke-dashoffset:2"
     d="m 296.28628,366.81817 c -11.73077,7.49904 -39.41859,90.22413 -61.14624,144.85131 l -21.96516,-8.31115 c 27.08423,-55.01289 43.40119,-119.59667 81.9241,-164.44184 l 10.50309,0 c 39.6048,51.47455 54.88683,109.69838 81.92409,164.44184 l -21.96515,8.31115 C 343.83336,457.0423 316.14554,374.31721 304.41476,366.81817 z"
     id="path4046" />
  <path
     inkscape:connector-curvature="0"
     style="fill:#cccccc;stroke:#00000e;stroke-width:0;stroke-miterlimit:4;stroke-opacity:1;stroke-dasharray:none;stroke-dashoffset:2"
     d="m 299.07189,331.79266 c 55.52517,66.86683 40.74086,135.82354 54.02241,195.90544 l 45.71127,-25.52708 C 373.64764,451.5954 343.52981,378.27908 312.7259,334.76092 z"
     id="path4026" />
  <path
     inkscape:connector-curvature="0"
     style="fill:#cccccc;fill-opacity:1;fill-rule:evenodd;stroke:#00000e;stroke-width:0;stroke-miterlimit:4;stroke-opacity:1;stroke-dasharray:none;stroke-dashoffset:2"
     d="M 301.62916,331.79266 C 246.10399,398.65949 260.88829,467.6162 247.60675,527.6981 l -45.71128,-25.52708 c 25.15794,-50.57562 55.27577,-123.89194 86.07968,-167.4101 z"
     id="path4036" />
  <path
     inkscape:connector-curvature="0"
     style="fill:#cccccc;fill-opacity:1;fill-rule:evenodd;stroke:#00000e;stroke-width:0;stroke-miterlimit:4;stroke-opacity:1;stroke-dasharray:none;stroke-dashoffset:2"
     d="m 269.04277,311.56776 c -80.75237,-32.14459 -141.76549,3.22492 -203.010999,9.15975 l 10.152127,-51.3623 c 55.874512,8.29789 134.909402,14.28566 185.816562,30.13406 z"
     id="path4038" />
  <circle
     cx="0"
     cy="0"
     r="100"
     id="circle8"
     sodipodi:cx="0"
     sodipodi:cy="0"
     sodipodi:rx="100"
     sodipodi:ry="100"
     transform="matrix(0.2833219,0,0,0.2833219,299.25455,299.25455)"
     style="fill:#1a1a1a;stroke:#008000;stroke-width:0;stroke-miterlimit:4;stroke-dasharray:none" />
  <path
     style="fill:#333333;fill-opacity:0.98930485;fill-rule:evenodd;stroke:#00000e;stroke-width:0;stroke-miterlimit:4;stroke-opacity:1;stroke-dasharray:none;stroke-dashoffset:2"
     d="m 335.82586,333.92909 c 0,5.42626 -4.39887,9.82512 -9.82513,9.82512 -5.42627,0 -9.82513,-4.39886 -9.82513,-9.82512 0,-5.42627 4.39886,-9.82513 9.82513,-9.82513 5.42626,0 9.82513,4.39886 9.82513,9.82513 z"
     id="path4100"
     inkscape:connector-curvature="0" />
  <path
     sodipodi:type="star"
     style="fill:#808080;fill-opacity:0.98930485;fill-rule:evenodd;stroke:#00000e;stroke-width:0;stroke-miterlimit:4;stroke-opacity:1;stroke-dasharray:none;stroke-dashoffset:2"
     id="path4103"
     sodipodi:sides="6"
     sodipodi:cx="37.177086"
     sodipodi:cy="48.272953"
     sodipodi:r1="12.435598"
     sodipodi:r2="10.769544"
     sodipodi:arg1="0.78539816"
     sodipodi:arg2="1.3089969"
     inkscape:flatsided="true"
     inkscape:rounded="0"
     inkscape:randomized="0"
     d="m 45.970382,57.066249 -12.011866,3.21857 -8.793296,-8.793296 3.21857,-12.011866 12.011866,-3.21857 8.793295,8.793296 z"
     transform="matrix(0.71453245,0,0,0.71453245,299.25455,299.25455)" />
  <g
     id="g4219"
     transform="translate(418.8117,418.8117)" />
  <g
     id="g4286"
     transform="matrix(0.71453245,0,0,0.71453245,299.25455,299.25455)"
     style="stroke-width:0;stroke-miterlimit:4;stroke-dasharray:none">
    <path
       id="path4288"
       d="m 51.18215,48.527592 c 0,7.594152 -6.156277,13.750429 -13.750429,13.750429 -7.594153,0 -13.750429,-6.156277 -13.750429,-13.750429 0,-7.594153 6.156276,-13.750429 13.750429,-13.750429 7.594152,0 13.750429,6.156276 13.750429,13.750429 z"
       style="fill:#333333;fill-opacity:0.98930485;fill-rule:evenodd;stroke:#00000e;stroke-width:0;stroke-miterlimit:4;stroke-opacity:1;stroke-dasharray:none;stroke-dashoffset:2"
       inkscape:connector-curvature="0" />
    <path
       id="path4290"
       transform="matrix(0.30901699,0.95105652,-0.95105652,0.30901699,0,0)"
       d="m 51.18215,48.527592 c 0,7.594152 -6.156277,13.750429 -13.750429,13.750429 -7.594153,0 -13.750429,-6.156277 -13.750429,-13.750429 0,-7.594153 6.156276,-13.750429 13.750429,-13.750429 7.594152,0 13.750429,6.156276 13.750429,13.750429 z"
       style="fill:#333333;fill-opacity:0.98930485;fill-rule:evenodd;stroke:#00000e;stroke-width:0;stroke-miterlimit:4;stroke-opacity:1;stroke-dasharray:none;stroke-dashoffset:2"
       inkscape:connector-curvature="0" />
    <path
       id="path4292"
       transform="matrix(-0.80901699,0.58778525,-0.58778525,-0.80901699,0,0)"
       d="m 51.18215,48.527592 c 0,7.594152 -6.156277,13.750429 -13.750429,13.750429 -7.594153,0 -13.750429,-6.156277 -13.750429,-13.750429 0,-7.594153 6.156276,-13.750429 13.750429,-13.750429 7.594152,0 13.750429,6.156276 13.750429,13.750429 z"
       style="fill:#333333;fill-opacity:0.98930485;fill-rule:evenodd;stroke:#00000e;stroke-width:0;stroke-miterlimit:4;stroke-opacity:1;stroke-dasharray:none;stroke-dashoffset:2"
       inkscape:connector-curvature="0" />
    <path
       id="path4294"
       transform="matrix(-0.80901699,-0.58778525,0.58778525,-0.80901699,0,0)"
       d="m 51.18215,48.527592 c 0,7.594152 -6.156277,13.750429 -13.750429,13.750429 -7.594153,0 -13.750429,-6.156277 -13.750429,-13.750429 0,-7.594153 6.156276,-13.750429 13.750429,-13.750429 7.594152,0 13.750429,6.156276 13.750429,13.750429 z"
       style="fill:#333333;fill-opacity:0.98930485;fill-rule:evenodd;stroke:#00000e;stroke-width:0;stroke-miterlimit:4;stroke-opacity:1;stroke-dasharray:none;stroke-dashoffset:2"
       inkscape:connector-curvature="0" />
    <path
       id="path4296"
       transform="matrix(0.30901699,-0.95105652,0.95105652,0.30901699,0,0)"
       d="m 51.18215,48.527592 c 0,7.594152 -6.156277,13.750429 -13.750429,13.750429 -7.594153,0 -13.750429,-6.156277 -13.750429,-13.750429 0,-7.594153 6.156276,-13.750429 13.750429,-13.750429 7.594152,0 13.750429,6.156276 13.750429,13.750429 z"
       style="fill:#333333;fill-opacity:0.98930485;fill-rule:evenodd;stroke:#00000e;stroke-width:0;stroke-miterlimit:4;stroke-opacity:1;stroke-dasharray:none;stroke-dashoffset:2"
       inkscape:connector-curvature="0" />
    <path
       id="path4298"
       d="m 45.970382,57.066249 -12.011866,3.21857 -8.793296,-8.793296 3.21857,-12.011866 12.011866,-3.21857 8.793295,8.793296 z"
       style="fill:#808080;fill-opacity:0.98930485;fill-rule:evenodd;stroke:#00000e;stroke-width:0;stroke-miterlimit:4;stroke-opacity:1;stroke-dasharray:none;stroke-dashoffset:2"
       inkscape:connector-curvature="0" />
    <path
       id="path4300"
       transform="matrix(0.30901699,0.95105652,-0.95105652,0.30901699,0,0)"
       d="m 45.970382,57.066249 -12.011866,3.21857 -8.793296,-8.793296 3.21857,-12.011866 12.011866,-3.21857 8.793295,8.793296 z"
       style="fill:#808080;fill-opacity:0.98930485;fill-rule:evenodd;stroke:#00000e;stroke-width:0;stroke-miterlimit:4;stroke-opacity:1;stroke-dasharray:none;stroke-dashoffset:2"
       inkscape:connector-curvature="0" />
    <path
       id="path4302"
       transform="matrix(-0.80901699,0.58778525,-0.58778525,-0.80901699,0,0)"
       d="m 45.970382,57.066249 -12.011866,3.21857 -8.793296,-8.793296 3.21857,-12.011866 12.011866,-3.21857 8.793295,8.793296 z"
       style="fill:#808080;fill-opacity:0.98930485;fill-rule:evenodd;stroke:#00000e;stroke-width:0;stroke-miterlimit:4;stroke-opacity:1;stroke-dasharray:none;stroke-dashoffset:2"
       inkscape:connector-curvature="0" />
    <path
       id="path4304"
       transform="matrix(-0.80901699,-0.58778525,0.58778525,-0.80901699,0,0)"
       d="m 45.970382,57.066249 -12.011866,3.21857 -8.793296,-8.793296 3.21857,-12.011866 12.011866,-3.21857 8.793295,8.793296 z"
       style="fill:#808080;fill-opacity:0.98930485;fill-rule:evenodd;stroke:#00000e;stroke-width:0;stroke-miterlimit:4;stroke-opacity:1;stroke-dasharray:none;stroke-dashoffset:2"
       inkscape:connector-curvature="0" />
    <path
       id="path4306"
       transform="matrix(0.30901699,-0.95105652,0.95105652,0.30901699,0,0)"
       d="m 45.970382,57.066249 -12.011866,3.21857 -8.793296,-8.793296 3.21857,-12.011866 12.011866,-3.21857 8.793295,8.793296 z"
       style="fill:#808080;fill-opacity:0.98930485;fill-rule:evenodd;stroke:#00000e;stroke-width:0;stroke-miterlimit:4;stroke-opacity:1;stroke-dasharray:none;stroke-dashoffset:2"
       inkscape:connector-curvature="0" />
  </g>
</svg>
